<?xml version="1.0" standalone="no"?>
<!-- Generator: Adobe Fireworks 10, Export SVG Extension by Aaron Beall (http://fireworks.abeall.com) . Version: 0.6.1  -->
<!DOCTYPE svg PUBLIC "-//W3C//DTD SVG 1.1//EN" "http://www.w3.org/Graphics/SVG/1.1/DTD/svg11.dtd">
<svg id="Algebra-BOX-logo-Page%201" viewBox="0 0 301 290" style="background-color:#ffffff00" version="1.1"
	xmlns="http://www.w3.org/2000/svg" xmlns:xlink="http://www.w3.org/1999/xlink" xml:space="preserve"
	x="0px" y="0px" width="301px" height="290px"
>
	<g>
		<path id="Ellipse" d="M 13.5 145 C 13.5 69.336 74.836 8 150.5 8 C 226.164 8 287.5 69.336 287.5 145 C 287.5 220.664 226.164 282 150.5 282 C 74.836 282 13.5 220.664 13.5 145 Z" fill="#eb5a2d"/>
		<path d="M 39.5 204 C 39.5 209.5229 43.9973 214 49.5452 214 C 49.8843 214 50.5498 214 50.5498 214 L 251.4548 214 L 253.4638 214 C 258.049 213.0735 261.5 209.038 261.5 204.2 C 261.5 200.5697 257.4819 195 257.4819 195 L 229.3552 147 L 212.2828 157 L 235.2116 195 L 65.7884 195 L 87.7172 157 L 71.6448 147 L 43.5181 195 C 43.5181 195 39.5 200.3695 39.5 204 Z" fill="#ffffff"/>
		<path d="M 131.317 151.475 C 135.3371 158.25 141.5387 164 150 164 C 158.4613 164 164.4741 158.0625 168.683 151.475 L 223 59 L 188.7655 41 L 150 108.02 L 111.2345 41 L 77 59 L 131.317 151.475 Z" fill="#ffffff"/>
	</g>
</svg>